<svg width="1000" height="1000" viewBox="0 0 1000 1000" fill="none" xmlns="http://www.w3.org/2000/svg">
<g clip-path="url(#clip0_1_7)">
<circle cx="500" cy="500" r="500" fill="#51DDFF"/>
<path d="M529 204C535.713 206.239 541.996 208.427 548 212L720 315C721.285 315.764 722.822 316.131 724 317C750.634 330.768 769 357.936 769 390C769 398.577 769 403.806 769 415C769 423.955 769 426.634 769 433V563C769 570.094 769 574.045 769 583C769 593.457 769 600.453 769 610C769 647.106 739.904 668.151 711 689L545 787C541.209 789.256 537.078 791.2 533 793C522.587 797.597 510.178 800 498 800C466.3 800 438.91 783.474 425 758L485 723C491.113 719.706 645.781 624.106 651 621L321 424V692C318.762 691.998 316.26 692 314 692C268.278 692 232 655.749 232 610C232 603.314 232 599.777 232 590C232 581.045 232 580.951 232 576V424C232 419.049 232 414.716 232 408C232 397.394 232 396.686 232 390C232 344.251 268.278 308 314 308C316.26 308 318.786 307.822 321 308C334.425 307.729 356.154 314.929 368 322L680 507V394L671 388C667.871 386.138 497.463 284.406 495 282L425 242C438.91 216.526 466.3 200 498 200C509.081 200 518.548 200.514 529 204Z" fill="black"/>
</g>
<defs>
<clipPath id="clip0_1_7">
<rect width="1000" height="1000" fill="white"/>
</clipPath>
</defs>
</svg>
