<svg width="537" height="537" viewBox="0 0 537 537" fill="none" xmlns="http://www.w3.org/2000/svg">
<circle cx="268.008" cy="268.994" r="267.606" fill="#078A4B"/>
<path d="M281.197 143.661C284.072 144.617 286.555 145.392 289.443 146.907L362.93 190.519C364.016 191.163 365.084 191.842 366.174 192.48C376.666 198.623 383.712 209.997 383.712 223.013C383.712 226.675 383.712 228.748 383.712 233.528C383.712 237.352 383.712 238.459 383.712 241.177V305.231C383.712 309.696 383.712 312.627 383.712 316.704C383.712 332.549 371.257 341.56 358.88 350.464L287.904 392.229C286.281 393.193 284.156 394.142 282.41 394.911C277.951 396.874 273 397.967 267.785 397.967C254.212 397.967 242.42 390.559 236.464 379.681C239.081 378.275 330.932 322.556 333.167 321.23L192.096 237.253V352.077C191.138 352.076 190.19 352.077 189.222 352.077C169.644 352.077 153.773 336.24 153.773 316.704C153.773 320.879 153.773 313.849 153.773 316.704C153.773 318.818 153.773 312.88 153.773 316.704V237.353C153.773 235.239 153.773 233.528 153.773 230.66C153.773 226.131 153.773 225.868 153.773 223.013C153.773 203.477 169.644 187.64 189.222 187.64C190.19 187.64 191.148 187.563 192.096 187.638C198.304 187.64 203.252 188.233 208.324 191.252L345.389 272.844V224.426C343.965 223.677 267.429 177.689 266.129 176.949L236.464 160.035C242.42 149.157 254.212 141.75 267.785 141.75C272.53 141.75 276.722 142.172 281.197 143.661Z" fill="white"/>
</svg>
