<svg width="451" height="451" viewBox="0 0 451 451" fill="none" xmlns="http://www.w3.org/2000/svg">
<g clip-path="url(#clip0_3_6)">
<circle cx="225.5" cy="225.5" r="225.5" fill="white"/>
<path fill-rule="evenodd" clip-rule="evenodd" d="M276.322 120.027C257.361 130.899 222.252 151.209 213.264 156.504C204.228 161.827 199.802 168.217 198.844 177.324C198.641 179.264 198.471 187.767 198.467 196.22C198.46 211.374 198.448 211.613 197.595 213.344C197.119 214.31 196.166 215.668 195.477 216.362C193.921 217.932 190.619 218.981 188.321 218.636C187.228 218.471 182.484 215.988 173.459 210.856C158.429 202.309 155.156 200.598 152.704 200.006C147.959 198.862 142.753 199.066 138.061 200.582C136.09 201.219 124.871 207.487 108.735 216.966C100.815 221.618 100.031 222.368 100.029 225.298C100.025 229.073 97.3101 227.294 145.395 255.016C179.297 274.562 189.716 280.398 191.603 280.9C193.145 281.31 195.61 281.557 198.321 281.574C205.278 281.617 206.273 281.212 223.762 271.241C237.75 263.266 238.996 262.634 241.127 262.44C243.127 262.259 243.701 262.373 245.596 263.334C247.805 264.454 249.151 265.845 250.039 267.925C250.405 268.782 250.59 273.788 250.759 287.379C250.978 305.109 251.013 305.764 251.868 308.377C253.219 312.501 255.156 315.89 257.785 318.729C259.981 321.099 261.395 322.019 275.361 330.164C294.949 341.588 296.299 342.286 298.164 341.935C300.034 341.583 302.159 339.689 302.678 337.911C302.963 336.933 303.053 321.045 302.971 286.031L302.853 235.56L301.767 232.478C300.176 227.959 298.643 225.507 295.382 222.263C292.325 219.221 291.466 218.675 272.295 207.588C267.71 204.935 263.339 202.121 262.467 201.258C259.702 198.522 259.212 194.064 261.288 190.515C262.455 188.519 262.429 188.537 272.285 182.787C289.883 172.52 293.091 170.516 295.105 168.53C297.798 165.874 300.578 161.355 301.808 157.635L302.794 154.653L302.823 134.04C302.84 122.704 302.72 112.95 302.557 112.365C302.09 110.695 299.447 108.997 297.316 109C295.705 109.002 293.835 109.984 276.322 120.027ZM250.918 195.519C251.443 196.046 251.522 197.829 251.522 209.222C251.522 222.544 251.395 223.818 250.067 223.8C249.704 223.795 244.216 220.781 237.872 217.101C227.205 210.915 226.337 210.332 226.337 209.361C226.337 208.391 227.205 207.808 237.872 201.622C244.216 197.942 249.611 194.928 249.86 194.923C250.11 194.918 250.585 195.186 250.918 195.519ZM224.53 211.172C225.191 211.835 225.191 238.095 224.53 238.758C224.276 239.012 223.713 239.216 223.28 239.211C222.273 239.199 200.414 226.538 199.849 225.639C199.549 225.162 199.544 224.777 199.833 224.318C200.387 223.438 222.29 210.737 223.28 210.722C223.714 210.715 224.276 210.918 224.53 211.172ZM251.06 226.583C251.402 226.925 251.522 230.533 251.522 240.426C251.522 252.076 251.444 253.884 250.918 254.411C250.585 254.744 250.181 255.016 250.019 255.016C249.857 255.016 246.539 253.177 242.645 250.929C238.751 248.681 233.531 245.69 231.045 244.283C226.521 241.722 225.413 240.569 226.463 239.517C227.375 238.603 249.075 226.182 249.811 226.152C250.245 226.135 250.807 226.329 251.06 226.583Z" fill="#000213"/>
</g>
<defs>
<clipPath id="clip0_3_6">
<rect width="451" height="451" fill="white"/>
</clipPath>
</defs>
</svg>
