<svg width="451" height="451" viewBox="0 0 451 451" fill="none" xmlns="http://www.w3.org/2000/svg">
<rect width="451" height="451" rx="225.5" fill="white"/>
<path d="M219.258 264.316V309.947H231.69V264.316H219.258ZM219.008 240.975V254.1H231.895V240.975H219.008ZM194.923 198.008V254.103H207.372V232.989H250.349V220.73H207.434V210.763H250.349V198.008H194.923ZM234.459 140.056V185.625H262.797V264.318H243.531V309.949H274.684L323.979 225.003L274.684 140.056H234.461H234.459ZM215.629 111.577H291.133L357.193 225.003L291.073 338.491H207.372V264.318H182.224V185.622H215.629V111.574V111.577ZM148.91 93L72 225L148.944 357H301.956L378.9 225L301.956 93H148.91ZM203.12 111.574V140.488L176.222 140.053L126.924 225L176.219 309.947H194.798V338.488L159.83 338.426L93.6438 225L159.83 111.574H203.118H203.12Z" fill="black"/>
</svg>
