<svg width="451" height="451" viewBox="0 0 451 451" fill="none" xmlns="http://www.w3.org/2000/svg">
<g clip-path="url(#clip0_3_100)">
<circle cx="225.5" cy="225.5" r="225.5" fill="white"/>
<path fill-rule="evenodd" clip-rule="evenodd" d="M357.697 234.016C357.898 231.037 358 228.03 358 225C358 221.358 357.853 217.751 357.563 214.183H223.077C221.186 214.183 219.653 215.717 219.653 217.608V230.6C219.653 232.492 221.186 234.025 223.077 234.025H252.33V234.016H357.697ZM344.333 283.557C340.91 290.462 336.9 297.025 332.368 303.18H216.727C196.859 303.18 180.752 287.074 180.752 267.207V215.755C180.752 195.888 196.859 179.783 216.727 179.783H350.052C352.351 186.089 354.183 192.62 355.506 199.333H223.077C212.984 199.333 204.802 207.515 204.802 217.608V230.6C204.802 240.693 212.984 248.875 223.077 248.875H322.612V248.866H355.848C354.604 255.677 352.838 262.305 350.592 268.707H214.287V283.557H344.333ZM319.646 318.03C295.734 342.098 262.607 357 226 357C153.098 357 94 297.902 94 225C94 152.098 153.098 93 226 93C277.269 93 321.712 122.229 343.573 164.933H216.727C188.657 164.933 165.901 187.687 165.901 215.755V267.207C165.901 295.276 188.657 318.03 216.727 318.03H319.646Z" fill="black"/>
</g>
<defs>
<clipPath id="clip0_3_100">
<rect width="451" height="451" fill="white"/>
</clipPath>
</defs>
</svg>
