<svg width="451" height="451" viewBox="0 0 451 451" fill="none" xmlns="http://www.w3.org/2000/svg">
<rect width="451" height="451" rx="225.5" fill="white"/>
<path d="M277.631 93.275C278.331 98.17 232.268 184.349 226.001 198.582C239.863 199.049 253.847 198.667 267.727 198.647C285.288 198.621 302.878 198.85 320.435 198.449C313.438 203.802 307 210.43 300.51 216.409L264.189 249.915L148.296 356.649L147.166 357.275C147.116 356.972 146.961 356.666 147.013 356.361C147.277 354.831 216.226 249.391 223.286 238.176C192.685 238.464 162.069 237.766 131.473 238.281C144.645 225.538 157.434 212.383 170.508 199.535L277.631 93.275Z" fill="black"/>
</svg>
