<svg width="451" height="451" viewBox="0 0 451 451" fill="none" xmlns="http://www.w3.org/2000/svg">
<g clip-path="url(#clip0_0_17)">
<circle cx="225.5" cy="225.5" r="225.5" fill="white"/>
<path d="M346.125 228.476C346.125 301.377 292.31 360.475 225.927 360.475C159.543 360.475 105.729 301.377 105.729 228.476C105.729 155.575 159.543 96.4766 225.927 96.4766C292.31 96.4766 346.125 155.575 346.125 228.476Z" fill="#2B0320"/>
<path d="M101.082 211.4C82.8995 212.974 81.8505 237.261 83.5988 249.208V281.333C83.5988 300.39 96.857 307.34 103.486 308.433C103.195 320.962 102.35 347.814 101.301 354.982C99.9895 363.942 103.705 383.83 124.903 382.081C141.862 380.683 146.685 367.221 146.976 360.664C157.291 360.664 163.512 356.876 165.334 354.982C173.201 368.969 194.545 373.048 204.234 373.34C203.943 382.3 203.535 401.532 204.234 406.777C205.108 413.333 211.446 423.823 224.121 422.949C236.797 422.075 241.823 414.863 244.227 407.869C246.15 402.275 246.048 377.856 245.757 366.346C253.799 365.123 256.538 361.029 256.903 359.134C265.12 365.079 271.982 361.029 274.386 358.26C286.624 366.783 293.399 360.664 296.677 359.134C299.3 357.911 300.975 358.625 301.485 359.134C305.638 361.174 316.171 364.336 325.088 360.664C336.233 356.075 336.671 347.333 337.982 344.274C339.293 341.214 347.816 341.87 360.055 332.691C372.293 323.512 378.412 311.492 374.915 290.512C371.419 269.532 350.22 261.009 348.253 261.009C346.286 261.009 337.982 259.479 336.452 258.605C335.228 257.906 335.942 242.579 336.452 235.003C336.962 226.188 337.108 207.16 333.611 201.566C329.24 194.572 316.783 196.102 305.201 198.069C295.934 199.642 292.744 207.175 292.307 210.744C292.525 213.804 292.307 220.142 289.684 221.016C287.062 221.89 286.552 215.115 286.624 211.619C285.925 206.898 282.108 204.261 280.287 203.532L295.585 189.546C300.903 184.665 312.631 170.096 317.002 150.864C321.373 131.632 319.989 115.897 318.75 110.434C313.578 87.0495 290.209 38.8392 238.108 33.0696C186.008 27.3001 158.267 52.5199 150.91 65.851C128.007 92.9502 127.089 127.99 129.493 142.122C136.661 178.488 159.287 199.234 169.704 205.062C154.625 207.248 144.791 209.433 137.797 222.546C132.203 233.036 130.95 232.161 131.022 230.413C131.547 223.595 129.056 217.811 127.744 215.771C121.975 209.302 107.566 210.162 101.082 211.4Z" fill="#2B0320" stroke="#5EEFF9" stroke-width="8.74168"/>
<rect x="216.747" y="356.542" width="18.3575" height="55.5097" rx="7.86752" fill="#A76D54"/>
<rect x="220.682" y="365.283" width="7.86752" height="42.3972" rx="3.93376" fill="#FEFDF5"/>
<path d="M341.316 291.856C339.183 290.637 331.805 290.657 327.051 290.875C325.958 290.926 325.089 291.796 325.016 292.888L323.806 310.86C323.709 312.296 325.004 313.432 326.415 313.15L332.872 311.858C336.865 311.06 341.092 309.846 343.409 306.498C347.709 300.284 343.795 293.272 341.316 291.856Z" stroke="black" stroke-width="0.437084"/>
<path d="M112.205 223.914C108.571 223.485 104.638 223.68 101.637 224.017C99.6007 224.246 98.1349 225.991 98.0847 228.04L96.6099 288.268C96.5775 289.588 97.7144 290.635 99.0274 290.495L135.478 286.589C137.699 286.351 139.383 284.477 139.383 282.243V270.098C139.383 268.853 138.344 267.86 137.1 267.915L117.223 268.803C115.967 268.859 114.922 267.845 114.941 266.587L115.511 227.95C115.541 225.942 114.199 224.149 112.205 223.914Z" fill="url(#paint0_linear_0_17)"/>
<path d="M109.614 228.416C107.648 228.155 105.599 228.258 103.876 228.49C101.967 228.746 100.686 230.448 100.663 232.373L100.074 282.479C100.059 283.76 101.143 284.779 102.42 284.685L132.22 282.491C134.241 282.342 135.894 280.823 136.215 278.822L137.012 273.841C137.224 272.513 136.198 271.31 134.854 271.31H114.688C113.481 271.31 112.503 270.331 112.503 269.124V232.114C112.503 230.315 111.397 228.653 109.614 228.416Z" fill="url(#paint1_linear_0_17)"/>
<path d="M223.422 217.372C219.39 216.914 214.666 217.132 211.259 217.489C209.221 217.703 207.752 219.436 207.702 221.484L206.287 279.24C206.223 281.874 208.485 283.965 211.106 283.695L246.7 280.02C248.928 279.79 250.622 277.913 250.622 275.673V265.552C250.622 263.168 248.712 261.224 246.328 261.182L230.309 260.898C227.89 260.855 225.967 258.857 226.016 256.439L226.731 221.414C226.772 219.397 225.426 217.599 223.422 217.372Z" fill="url(#paint2_linear_0_17)"/>
<path d="M220.414 221.199C218.449 220.938 216.399 221.042 214.676 221.273C212.768 221.529 211.486 223.231 211.464 225.157L210.874 275.263C210.859 276.543 211.943 277.562 213.22 277.468L243.02 275.274C245.041 275.125 246.695 273.607 247.015 271.606L247.812 266.624C248.024 265.296 246.999 264.093 245.654 264.093H225.489C224.282 264.093 223.303 263.115 223.303 261.908V224.898C223.303 223.098 222.198 221.436 220.414 221.199Z" fill="url(#paint3_linear_0_17)"/>
<path d="M270.549 213.876C266.508 213.416 261.857 213.634 258.473 213.993C256.43 214.209 254.955 215.947 254.904 218L254.164 247.705L253.398 278.445C253.366 279.761 254.496 280.807 255.806 280.673L294.338 276.724C296.567 276.496 298.263 274.617 298.263 272.376V260.09C298.263 258.883 297.284 257.904 296.077 257.904H275.151C273.923 257.904 272.936 256.894 272.966 255.666L273.872 217.947C273.921 215.918 272.565 214.105 270.549 213.876Z" fill="url(#paint4_linear_0_17)"/>
<path d="M268.057 218.14C266.091 217.879 264.042 217.982 262.319 218.213C260.41 218.469 259.129 220.172 259.106 222.097L258.517 272.203C258.502 273.484 259.586 274.503 260.862 274.409L290.662 272.215C292.684 272.066 294.337 270.547 294.657 268.546L295.455 263.564C295.667 262.237 294.641 261.034 293.297 261.034H273.131C271.924 261.034 270.946 260.055 270.946 258.848V221.838C270.946 220.039 269.84 218.377 268.057 218.14Z" fill="url(#paint5_linear_0_17)"/>
<path fill-rule="evenodd" clip-rule="evenodd" d="M171.29 285.734C189.274 285.734 203.853 270.568 203.853 251.86C203.853 233.152 189.274 217.986 171.29 217.986C153.306 217.986 138.727 233.152 138.727 251.86C138.727 270.568 153.306 285.734 171.29 285.734ZM171.072 265.629C177.831 265.629 183.31 259.367 183.31 251.642C183.31 243.917 177.831 237.655 171.072 237.655C164.313 237.655 158.833 243.917 158.833 251.642C158.833 259.367 164.313 265.629 171.072 265.629Z" fill="url(#paint6_linear_0_17)"/>
<path fill-rule="evenodd" clip-rule="evenodd" d="M171.29 282.238C187.825 282.238 201.23 268.54 201.23 251.642C201.23 234.744 187.825 221.046 171.29 221.046C154.754 221.046 141.35 234.744 141.35 251.642C141.35 268.54 154.754 282.238 171.29 282.238ZM171.072 269.562C179.762 269.562 186.807 261.539 186.807 251.642C186.807 241.744 179.762 233.721 171.072 233.721C162.381 233.721 155.337 241.744 155.337 251.642C155.337 261.539 162.381 269.562 171.072 269.562Z" fill="url(#paint7_linear_0_17)"/>
<path d="M316.853 210.715L308.442 211.717C306.335 211.968 304.713 213.695 304.595 215.813L301.599 269.435C301.452 272.057 303.634 274.215 306.255 274.04L316.308 273.367C318.561 273.216 320.329 271.373 320.385 269.115L321.739 215.165C321.806 212.503 319.497 210.401 316.853 210.715Z" fill="url(#paint8_linear_0_17)"/>
<path d="M313.91 215.466L310.788 215.928C308.718 216.235 307.156 217.966 307.062 220.056L305.042 265.035C304.924 267.668 307.145 269.806 309.772 269.587L314.004 269.234C316.236 269.048 317.966 267.205 318.011 264.966L318.92 219.878C318.975 217.174 316.585 215.07 313.91 215.466Z" fill="url(#paint9_linear_0_17)"/>
<path d="M238.19 290.4L232.749 348.807C232.717 349.152 232.764 349.506 232.914 349.819C235.983 356.222 245.658 353.746 248.991 351.817C249.501 351.521 249.768 350.967 249.806 350.379L251.445 324.907C251.508 323.942 252.86 323.777 253.151 324.7L259.072 343.424C259.12 343.574 259.187 343.725 259.268 343.861C264.053 351.892 269.902 346.174 271.382 343.65L281.787 322.293C282.211 321.422 283.526 321.784 283.444 322.749L281.486 345.895C281.453 346.285 281.517 346.683 281.726 347.014C285.02 352.239 297.13 351.585 298.858 346.047C298.902 345.908 298.923 345.762 298.93 345.617L302.266 283.491C302.342 282.075 301.07 280.962 299.677 281.226L287.277 283.574C286.624 283.698 286.062 284.112 285.752 284.7L270.208 314.101C269.356 315.714 267.019 315.633 266.279 313.966L254.976 288.489C254.594 287.629 253.704 287.109 252.766 287.2L240.154 288.427C239.111 288.528 238.287 289.356 238.19 290.4Z" fill="url(#paint10_linear_0_17)"/>
<path d="M237.752 287.775L232.312 346.183C232.28 346.527 232.327 346.882 232.476 347.194C235.545 353.597 245.221 351.122 248.554 349.192C249.063 348.896 249.331 348.343 249.368 347.755L251.008 322.282C251.07 321.317 252.422 321.152 252.714 322.075L258.635 340.799C258.683 340.949 258.749 341.1 258.83 341.236C263.616 349.267 269.465 343.549 270.945 341.025L281.35 319.668C281.774 318.797 283.088 319.16 283.007 320.124L281.048 343.27C281.015 343.66 281.079 344.058 281.288 344.389C284.585 349.618 296.71 348.959 298.425 343.41C298.465 343.279 298.486 343.142 298.495 343.005L302.467 282.163C302.554 280.824 301.425 279.723 300.088 279.844L286.986 281.037C286.25 281.104 285.597 281.539 285.252 282.192L269.771 311.476C268.918 313.089 266.581 313.009 265.841 311.341L254.538 285.864C254.156 285.004 253.266 284.484 252.329 284.576L239.717 285.802C238.674 285.904 237.849 286.731 237.752 287.775Z" fill="#F8F4D7"/>
<path d="M240.184 290.781L235.206 344.292C235.142 344.986 235.403 345.683 235.974 346.083C239.831 348.785 244.075 347.382 246.361 345.934C246.866 345.614 247.155 345.06 247.209 344.465L249.856 315.728C249.94 314.818 251.189 314.631 251.535 315.477L261.047 338.686C261.089 338.788 261.141 338.891 261.199 338.985C264.324 344.027 267.825 341.005 269.196 338.84L284.15 312.04C284.603 311.227 285.843 311.591 285.786 312.52L284.095 339.762C284.07 340.16 284.148 340.562 284.363 340.897C286.956 344.945 292.598 343.968 295.603 341.806C296.068 341.472 296.311 340.923 296.339 340.351L299.012 285.46C299.077 284.114 297.922 283.03 296.583 283.182L288.623 284.083C287.949 284.159 287.348 284.544 286.998 285.125L269.267 314.486C268.379 315.955 266.223 315.876 265.447 314.345L252.618 289.054C252.205 288.241 251.33 287.769 250.423 287.872L242.114 288.812C241.086 288.929 240.28 289.751 240.184 290.781Z" fill="url(#paint11_linear_0_17)"/>
<path d="M190.311 287.021L178.363 287.743C177.085 287.821 176.059 288.826 175.957 290.102L173.243 323.845C170.592 337.975 180.474 356.473 200.719 354.418C220.964 352.362 225.945 336.776 226.508 328.984L230.249 286.969C230.389 285.401 229.098 284.077 227.526 284.178L216.026 284.916C214.796 284.995 213.795 285.936 213.641 287.16L208.764 326.002C208.695 326.546 208.588 327.096 208.405 327.614C204.321 339.212 190.332 332.784 191.615 325.727L193.033 289.687C193.093 288.168 191.828 286.93 190.311 287.021Z" fill="url(#paint12_linear_0_17)"/>
<path d="M189.911 287.788L178.396 290.433C177.31 290.683 176.508 291.604 176.412 292.715L173.682 324.155C171.03 337.238 180.912 354.366 201.157 352.463C221.403 350.559 226.384 336.128 226.946 328.912L229.629 287.752C229.743 286.005 228.114 284.658 226.42 285.098L215.971 287.812C214.983 288.069 214.24 288.887 214.08 289.895L208.149 327.128C208.054 327.723 207.918 328.316 207.675 328.867C203.897 337.443 191.916 333.763 191.965 327.764C191.97 327.193 192.061 326.623 192.076 326.052L193.055 290.363C193.101 288.683 191.549 287.412 189.911 287.788Z" fill="#F6F3DA"/>
<path d="M187.442 290.732L180.578 291.271C179.508 291.355 178.657 292.204 178.571 293.274L176.098 323.979C173.694 335.999 182.654 351.734 201.012 349.986C219.369 348.237 223.886 334.979 224.396 328.35L227.671 289.866C227.786 288.51 226.647 287.379 225.292 287.505L217.839 288.195C216.818 288.289 216 289.081 215.872 290.098L211.194 327.324C211.108 328.005 210.949 328.684 210.67 329.312C205.513 340.913 191.479 338.074 189.048 330.599C188.804 329.847 188.784 329.045 188.807 328.255L189.798 292.972C189.834 291.674 188.737 290.631 187.442 290.732Z" fill="url(#paint13_linear_0_17)"/>
<path d="M119.123 298.959L114.791 363.546C114.726 364.516 115.06 365.471 115.716 366.188C119.121 369.913 124.771 370.508 128.877 367.575L130.897 366.132C131.853 365.449 132.493 364.411 132.675 363.251L134.625 350.8C134.97 348.596 136.923 347.028 139.152 346.955C158.303 346.326 174.562 334.353 173.187 313.295C172.013 295.309 159 290.486 152.64 290.323L125.062 292.869C121.855 293.165 119.338 295.746 119.123 298.959Z" fill="url(#paint14_linear_0_17)"/>
<path d="M308.451 286.123L305.815 345.66C305.74 347.353 306.651 348.937 308.152 349.724L309.065 350.203C311.997 351.74 315.428 352.024 318.573 350.989L318.865 350.893C320.42 350.381 321.559 349.043 321.816 347.426L323.582 336.296C323.931 334.097 325.88 332.534 328.105 332.459C346.936 331.829 362.911 320.197 361.559 299.752C360.403 282.274 347.592 277.588 341.332 277.43L314.406 279.883C311.14 280.181 308.596 282.846 308.451 286.123Z" fill="url(#paint15_linear_0_17)"/>
<path d="M117.061 298.444L114.372 359.98C114.299 361.664 115.2 363.24 116.688 364.031L117.704 364.57C120.663 366.142 124.137 366.432 127.316 365.373L127.681 365.251C129.232 364.734 130.364 363.395 130.617 361.781L132.44 350.144C132.785 347.94 134.737 346.372 136.967 346.299C156.118 345.67 172.376 333.698 171.002 312.639C169.827 294.653 156.814 289.831 150.454 289.668L123.009 292.202C119.745 292.503 117.205 295.169 117.061 298.444Z" fill="url(#paint16_linear_0_17)"/>
<path fill-rule="evenodd" clip-rule="evenodd" d="M116.77 356.719L119.844 302.534C120.023 299.383 122.422 296.806 125.553 296.403L144.16 294.007C147.382 293.592 150.697 293.247 153.779 294.276C159.564 296.207 166.555 301.623 167.358 313.926C168.575 332.584 152.101 343.15 134.876 343.876C132.608 343.972 130.632 345.597 130.334 347.848L129.161 356.716C128.995 357.969 128.201 359.051 127.056 359.586L126.364 359.908C123.831 361.09 120.888 361.006 118.427 359.681C117.346 359.099 116.7 357.945 116.77 356.719ZM135.39 305.953C140.144 305.734 147.522 305.714 149.655 306.933C152.134 308.35 156.048 315.362 151.748 321.575C149.431 324.923 145.204 326.137 141.211 326.936L134.754 328.227C133.342 328.509 132.048 327.373 132.145 325.937L133.355 307.965C133.428 306.874 134.297 306.003 135.39 305.953Z" fill="url(#paint17_linear_0_17)"/>
<path d="M147.38 308.881C145.766 307.964 140.325 307.945 136.593 308.098C135.499 308.143 134.63 309.013 134.556 310.105L133.677 323.099C133.58 324.534 134.872 325.67 136.284 325.389L139.474 324.755C143.453 323.963 147.895 322.824 149.69 319.186C151.932 314.646 149.176 309.902 147.38 308.881Z" fill="#2B0320"/>
<path d="M309.277 281.211L304.941 341.5C304.862 342.598 305.178 343.709 305.964 344.478C311.547 349.942 318.44 346.713 320.788 343.805C321.092 343.428 321.26 342.965 321.36 342.49L323.5 332.328C323.697 331.392 324.481 330.693 325.433 330.603L335.257 329.676C335.362 329.666 335.468 329.648 335.57 329.623C353.73 325.167 360.941 316.857 361.421 298.628C361.774 285.22 356.519 279.769 345.874 276.516C343.888 275.91 341.788 275.799 339.725 276.028L311.216 279.196C310.168 279.312 309.353 280.16 309.277 281.211Z" fill="#F8F4D7"/>
<path d="M339.257 293.583C337.643 292.665 332.203 292.647 328.47 292.8C327.377 292.844 326.508 293.715 326.434 294.807L325.555 307.8C325.457 309.236 326.75 310.372 328.161 310.091L331.352 309.456C335.331 308.665 339.772 307.525 341.568 303.888C343.809 299.348 341.054 294.604 339.257 293.583Z" fill="#2B0320"/>
<path fill-rule="evenodd" clip-rule="evenodd" d="M308.215 337.989L312.332 285.086C312.412 284.061 313.195 283.23 314.213 283.09L333.578 280.424C339.549 279.602 345.969 279.628 350.641 283.436C354.732 286.771 358.352 292.054 358.144 299.721C357.707 315.893 350.714 321.575 334.105 325.509L323.128 326.834C322.13 326.954 321.343 327.739 321.221 328.737L320.016 338.549C319.939 339.173 319.747 339.79 319.316 340.247C317.212 342.478 312.316 343.97 309.049 340.67C308.361 339.974 308.139 338.965 308.215 337.989ZM326.622 290.438C331.406 290.221 338.842 290.2 340.99 291.408C343.493 292.815 347.447 299.796 343.058 305.964C340.724 309.243 336.547 310.42 332.598 311.197L325.972 312.501C324.562 312.779 323.272 311.642 323.37 310.208L324.585 292.449C324.659 291.357 325.529 290.487 326.622 290.438Z" fill="url(#paint18_linear_0_17)"/>
<circle cx="223.522" cy="124.231" r="85.887" fill="#2B0320"/>
<mask id="path-32-inside-1_0_17" fill="white">
<path fill-rule="evenodd" clip-rule="evenodd" d="M173.375 56.1084C136.498 83.7825 129.337 136.512 157.382 173.884C185.427 211.255 238.057 219.116 274.934 191.442C311.812 163.768 318.972 111.038 290.927 73.6669C262.883 36.2955 210.253 28.4343 173.375 56.1084ZM196.043 83.8302C173.982 100.385 169.819 132.09 186.745 154.644C203.671 177.199 235.275 182.062 257.336 165.507C279.397 148.952 283.559 117.248 266.634 94.6933C249.708 72.1387 218.103 67.2752 196.043 83.8302Z"/>
</mask>
<path fill-rule="evenodd" clip-rule="evenodd" d="M173.375 56.1084C136.498 83.7825 129.337 136.512 157.382 173.884C185.427 211.255 238.057 219.116 274.934 191.442C311.812 163.768 318.972 111.038 290.927 73.6669C262.883 36.2955 210.253 28.4343 173.375 56.1084ZM196.043 83.8302C173.982 100.385 169.819 132.09 186.745 154.644C203.671 177.199 235.275 182.062 257.336 165.507C279.397 148.952 283.559 117.248 266.634 94.6933C249.708 72.1387 218.103 67.2752 196.043 83.8302Z" fill="url(#paint19_linear_0_17)"/>
<path d="M162.626 169.948C136.705 135.407 143.395 86.8039 177.311 61.3523L169.44 50.8645C129.601 80.7611 121.97 137.617 152.138 177.819L162.626 169.948ZM270.999 186.198C237.083 211.65 188.547 204.49 162.626 169.948L152.138 177.819C182.307 218.02 239.03 226.583 278.869 196.686L270.999 186.198ZM285.683 77.6021C311.604 112.143 304.915 160.747 270.999 186.198L278.869 196.686C318.709 166.789 326.34 109.933 296.171 69.7317L285.683 77.6021ZM177.311 61.3523C211.226 35.9008 259.763 43.0609 285.683 77.6021L296.171 69.7317C266.003 29.5302 209.279 20.9679 169.44 50.8645L177.311 61.3523ZM191.989 150.709C177.154 130.941 180.922 103.374 199.978 89.0741L192.108 78.5863C167.042 97.3964 162.485 133.239 181.501 158.58L191.989 150.709ZM253.401 160.263C234.345 174.563 206.824 170.478 191.989 150.709L181.501 158.58C200.518 183.92 236.206 189.561 261.271 170.751L253.401 160.263ZM261.39 98.6285C276.225 118.397 272.456 145.963 253.401 160.263L261.271 170.751C286.337 151.941 290.894 116.099 271.878 90.7581L261.39 98.6285ZM199.978 89.0741C219.034 74.7741 246.555 78.86 261.39 98.6285L271.878 90.7581C252.861 65.4175 217.173 59.7762 192.108 78.5863L199.978 89.0741Z" fill="#2B0320" mask="url(#path-32-inside-1_0_17)"/>
<mask id="path-34-inside-2_0_17" fill="white">
<path fill-rule="evenodd" clip-rule="evenodd" d="M299.309 88.1145C296.932 83.1987 294.047 78.4369 290.644 73.9013C262.599 36.5299 209.969 28.6687 173.092 56.3428C152.142 72.0639 140.783 95.8708 140.02 120.355C156.015 136.606 171.755 147.508 186.228 154.565C169.574 132.031 173.8 100.543 195.759 84.0641C214.134 70.2746 239.131 71.3454 256.751 85.1222C265.37 79.7876 275.61 77.0849 286.202 77.7825L287.992 77.9004L299.309 88.1145Z"/>
</mask>
<path fill-rule="evenodd" clip-rule="evenodd" d="M299.309 88.1145C296.932 83.1987 294.047 78.4369 290.644 73.9013C262.599 36.5299 209.969 28.6687 173.092 56.3428C152.142 72.0639 140.783 95.8708 140.02 120.355C156.015 136.606 171.755 147.508 186.228 154.565C169.574 132.031 173.8 100.543 195.759 84.0641C214.134 70.2746 239.131 71.3454 256.751 85.1222C265.37 79.7876 275.61 77.0849 286.202 77.7825L287.992 77.9004L299.309 88.1145Z" fill="url(#paint20_linear_0_17)"/>
<path d="M299.309 88.1145L294.038 93.9551L306.392 84.6904L299.309 88.1145ZM140.02 120.355L132.156 120.11L132.052 123.474L134.413 125.873L140.02 120.355ZM186.228 154.565L182.779 161.637L192.555 149.889L186.228 154.565ZM256.751 85.1222L251.905 91.3201L256.227 94.6993L260.892 91.812L256.751 85.1222ZM286.202 77.7825L286.719 69.932L286.719 69.932L286.202 77.7825ZM287.992 77.9004L293.263 72.0599L291.235 70.2295L288.509 70.0499L287.992 77.9004ZM306.392 84.6904C303.796 79.3196 300.646 74.1228 296.936 69.1791L284.351 78.6236C287.448 82.751 290.069 87.0778 292.226 91.5387L306.392 84.6904ZM296.936 69.1791C266.343 28.4115 208.801 19.7089 168.369 50.0501L177.814 62.6355C211.137 37.6285 258.855 44.6483 284.351 78.6236L296.936 69.1791ZM168.369 50.0501C145.41 67.2793 132.99 93.3633 132.156 120.11L147.884 120.6C148.576 98.3784 158.874 76.8484 177.814 62.6355L168.369 50.0501ZM134.413 125.873C150.989 142.715 167.448 154.161 182.779 161.637L189.676 147.493C176.061 140.855 161.041 130.496 145.627 114.836L134.413 125.873ZM191.036 77.7714C165.489 96.9433 160.777 133.365 179.9 159.241L192.555 149.889C178.371 130.697 182.111 104.142 200.481 90.3568L191.036 77.7714ZM261.597 78.9243C241.332 63.0791 212.411 61.7308 191.036 77.7714L200.481 90.3568C215.857 78.8184 236.93 79.6117 251.905 91.3201L261.597 78.9243ZM260.892 91.812C268.151 87.3192 276.768 85.0457 285.685 85.633L286.719 69.932C274.453 69.1241 262.589 72.2561 252.611 78.4325L260.892 91.812ZM285.685 85.633L287.474 85.7509L288.509 70.0499L286.719 69.932L285.685 85.633ZM282.72 83.7409L294.038 93.9551L304.58 82.274L293.263 72.0599L282.72 83.7409Z" fill="#2B0320" mask="url(#path-34-inside-2_0_17)"/>
<path d="M233.188 143.578C245.951 138.508 249.287 126.896 249.36 121.724C248.704 114.512 220.95 98.7769 227.506 108.83C232.494 116.479 233.188 121.724 226.85 128.062C212.514 132.607 204.559 123.254 202.373 118.009C198.658 139.207 217.234 149.916 233.188 143.578Z" fill="#7206A1"/>
<path d="M223.353 124.784C228.248 120.588 226.413 117.207 224.883 116.042C225.101 119.101 222.054 121.068 221.605 116.916C220.73 108.83 229.254 108.611 232.313 110.36C235.373 112.108 244.333 116.697 245.644 131.121C249.799 125.292 253.744 111.548 239.519 99.9939C236.897 97.8637 233.762 96.3983 230.441 95.7807C215.522 93.0069 206.754 100.913 204.995 109.704C202.591 121.724 217.234 130.029 223.353 124.784Z" fill="#CE1197" stroke="black" stroke-width="2.18542"/>
<mask id="path-38-outside-3_0_17" maskUnits="userSpaceOnUse" x="171.536" y="68.3112" width="108" height="109" fill="black">
<rect fill="white" x="171.536" y="68.3112" width="108" height="109"/>
<path fill-rule="evenodd" clip-rule="evenodd" d="M225.489 172.529C252.526 172.529 274.443 150.319 274.443 122.92C274.443 95.5219 252.526 73.3112 225.489 73.3112C198.453 73.3112 176.536 95.5219 176.536 122.92C176.536 150.319 198.453 172.529 225.489 172.529ZM224.616 151.549C240.789 151.549 253.9 138.144 253.9 121.609C253.9 105.073 240.789 91.6684 224.616 91.6684C208.442 91.6684 195.331 105.073 195.331 121.609C195.331 138.144 208.442 151.549 224.616 151.549Z"/>
</mask>
<path fill-rule="evenodd" clip-rule="evenodd" d="M225.489 172.529C252.526 172.529 274.443 150.319 274.443 122.92C274.443 95.5219 252.526 73.3112 225.489 73.3112C198.453 73.3112 176.536 95.5219 176.536 122.92C176.536 150.319 198.453 172.529 225.489 172.529ZM224.616 151.549C240.789 151.549 253.9 138.144 253.9 121.609C253.9 105.073 240.789 91.6684 224.616 91.6684C208.442 91.6684 195.331 105.073 195.331 121.609C195.331 138.144 208.442 151.549 224.616 151.549Z" fill="url(#paint21_linear_0_17)"/>
<path d="M270.072 122.92C270.072 147.96 250.057 168.158 225.489 168.158V176.9C254.994 176.9 278.814 152.678 278.814 122.92H270.072ZM225.489 77.6821C250.057 77.6821 270.072 97.8809 270.072 122.92H278.814C278.814 93.163 254.994 68.9404 225.489 68.9404V77.6821ZM180.907 122.92C180.907 97.8809 200.922 77.6821 225.489 77.6821V68.9404C195.984 68.9404 172.165 93.163 172.165 122.92H180.907ZM225.489 168.158C200.922 168.158 180.907 147.96 180.907 122.92H172.165C172.165 152.678 195.984 176.9 225.489 176.9V168.158ZM249.53 121.609C249.53 135.822 238.284 147.178 224.616 147.178V155.92C243.294 155.92 258.271 140.466 258.271 121.609H249.53ZM224.616 96.0392C238.284 96.0392 249.53 107.395 249.53 121.609H258.271C258.271 102.751 243.294 87.2975 224.616 87.2975V96.0392ZM199.702 121.609C199.702 107.395 210.947 96.0392 224.616 96.0392V87.2975C205.938 87.2975 190.96 102.751 190.96 121.609H199.702ZM224.616 147.178C210.947 147.178 199.702 135.822 199.702 121.609H190.96C190.96 140.466 205.938 155.92 224.616 155.92V147.178Z" fill="#2B0320" mask="url(#path-38-outside-3_0_17)"/>
<mask id="path-40-outside-4_0_17" maskUnits="userSpaceOnUse" x="170.41" y="109.829" width="98" height="71" fill="black">
<rect fill="white" x="170.41" y="109.829" width="98" height="71"/>
<path fill-rule="evenodd" clip-rule="evenodd" d="M177.41 133.577C181.039 157.345 201.316 175.541 225.786 175.541C241.219 175.541 254.984 168.303 263.957 156.995C264.123 138.586 262.289 129.934 254.071 121.829C254.154 122.748 254.196 123.679 254.196 124.621C254.196 141.156 241.085 154.561 224.912 154.561C219.08 154.561 213.646 152.818 209.081 149.813L207.733 149.712C195.732 148.808 184.761 142.896 177.41 133.577Z"/>
</mask>
<path fill-rule="evenodd" clip-rule="evenodd" d="M177.41 133.577C181.039 157.345 201.316 175.541 225.786 175.541C241.219 175.541 254.984 168.303 263.957 156.995C264.123 138.586 262.289 129.934 254.071 121.829C254.154 122.748 254.196 123.679 254.196 124.621C254.196 141.156 241.085 154.561 224.912 154.561C219.08 154.561 213.646 152.818 209.081 149.813L207.733 149.712C195.732 148.808 184.761 142.896 177.41 133.577Z" fill="url(#paint22_linear_0_17)"/>
<path d="M177.41 133.577L180.842 130.87L170.592 117.876L173.09 134.237L177.41 133.577ZM263.957 156.995L267.38 159.712L268.314 158.536L268.327 157.035L263.957 156.995ZM254.071 121.829L257.14 118.717L248.643 110.336L249.718 122.222L254.071 121.829ZM209.081 149.813L211.484 146.162L210.538 145.54L209.409 145.455L209.081 149.813ZM207.733 149.712L207.405 154.07L207.733 149.712ZM173.09 134.237C177.032 160.064 199.081 179.911 225.786 179.911V171.17C203.55 171.17 185.045 154.627 181.731 132.917L173.09 134.237ZM225.786 179.911C242.622 179.911 257.623 172.01 267.38 159.712L260.533 154.279C252.345 164.597 239.816 171.17 225.786 171.17V179.911ZM268.327 157.035C268.411 147.766 268.007 140.501 266.38 134.419C264.702 128.146 261.77 123.283 257.14 118.717L251.001 124.941C254.59 128.48 256.683 131.996 257.935 136.677C259.239 141.55 259.668 147.815 259.586 156.956L268.327 157.035ZM258.567 124.621C258.567 123.548 258.519 122.485 258.424 121.435L249.718 122.222C249.789 123.011 249.826 123.811 249.826 124.621H258.567ZM224.912 158.932C243.59 158.932 258.567 143.478 258.567 124.621H249.826C249.826 138.834 238.581 150.19 224.912 150.19V158.932ZM206.678 153.464C211.929 156.921 218.194 158.932 224.912 158.932V150.19C219.965 150.19 215.362 148.715 211.484 146.162L206.678 153.464ZM209.409 145.455L208.061 145.353L207.405 154.07L208.753 154.172L209.409 145.455ZM208.061 145.353C197.289 144.542 187.441 139.235 180.842 130.87L173.979 136.284C182.082 146.557 194.175 153.074 207.405 154.07L208.061 145.353Z" fill="#2B0320" mask="url(#path-40-outside-4_0_17)"/>
<path d="M115.18 184.331C119.426 183.884 127.918 180.577 127.918 170.923C128.344 175.182 131.245 183.5 139.408 184.273C139.852 184.27 140.271 184.291 140.656 184.331C140.227 184.331 139.811 184.311 139.408 184.273C135.054 184.308 128.27 186.7 127.931 196.309C127.935 196.575 127.93 196.829 127.918 197.069C127.918 196.811 127.922 196.558 127.931 196.309C127.861 191.889 125.299 184.331 115.18 184.331Z" fill="#FC56A8"/>
<path d="M312.282 175.186C315.411 174.865 321.668 172.49 321.668 165.559C321.982 168.617 324.12 174.589 330.135 175.144C330.462 175.142 330.771 175.157 331.054 175.186C330.738 175.186 330.432 175.172 330.135 175.144C326.927 175.169 321.928 176.887 321.678 183.786C321.681 183.976 321.678 184.158 321.668 184.331C321.668 184.146 321.672 183.964 321.678 183.786C321.626 180.612 319.739 175.186 312.282 175.186Z" fill="#F4F2DD"/>
</g>
<defs>
<linearGradient id="paint0_linear_0_17" x1="117.966" y1="223.668" x2="117.966" y2="290.76" gradientUnits="userSpaceOnUse">
<stop offset="0.118426" stop-color="#F2F7F8"/>
<stop offset="0.56" stop-color="#F2F7F8"/>
<stop offset="0.833462" stop-color="#4EF1FA"/>
</linearGradient>
<linearGradient id="paint1_linear_0_17" x1="118.731" y1="228.262" x2="118.731" y2="284.859" gradientUnits="userSpaceOnUse">
<stop offset="0.118426" stop-color="#5EEFF9"/>
<stop offset="0.56" stop-color="#0594EC"/>
<stop offset="0.833462" stop-color="#0176E5"/>
</linearGradient>
<linearGradient id="paint2_linear_0_17" x1="228.394" y1="217.112" x2="228.394" y2="284.205" gradientUnits="userSpaceOnUse">
<stop offset="0.118426" stop-color="#F2F7F8"/>
<stop offset="0.56" stop-color="#F2F7F8"/>
<stop offset="0.833462" stop-color="#4EF1FA"/>
</linearGradient>
<linearGradient id="paint3_linear_0_17" x1="229.532" y1="221.046" x2="229.532" y2="277.643" gradientUnits="userSpaceOnUse">
<stop offset="0.118426" stop-color="#5EEFF9"/>
<stop offset="0.56" stop-color="#0594EC"/>
<stop offset="0.833462" stop-color="#0176E5"/>
</linearGradient>
<linearGradient id="paint4_linear_0_17" x1="275.8" y1="213.615" x2="275.8" y2="280.926" gradientUnits="userSpaceOnUse">
<stop offset="0.118426" stop-color="#F2F7F8"/>
<stop offset="0.56" stop-color="#F2F7F8"/>
<stop offset="0.833462" stop-color="#4EF1FA"/>
</linearGradient>
<linearGradient id="paint5_linear_0_17" x1="277.174" y1="217.986" x2="277.174" y2="274.583" gradientUnits="userSpaceOnUse">
<stop offset="0.118426" stop-color="#5EEFF9"/>
<stop offset="0.56" stop-color="#0594EC"/>
<stop offset="0.833462" stop-color="#0176E5"/>
</linearGradient>
<linearGradient id="paint6_linear_0_17" x1="171.29" y1="217.986" x2="171.29" y2="285.734" gradientUnits="userSpaceOnUse">
<stop offset="0.118426" stop-color="#F2F7F8"/>
<stop offset="0.56" stop-color="#F2F7F8"/>
<stop offset="0.833462" stop-color="#4EF1FA"/>
</linearGradient>
<linearGradient id="paint7_linear_0_17" x1="171.29" y1="221.046" x2="171.29" y2="282.238" gradientUnits="userSpaceOnUse">
<stop offset="0.118426" stop-color="#5EEFF9"/>
<stop offset="0.56" stop-color="#0594EC"/>
<stop offset="0.833462" stop-color="#0176E5"/>
</linearGradient>
<linearGradient id="paint8_linear_0_17" x1="311.594" y1="210.119" x2="311.594" y2="274.37" gradientUnits="userSpaceOnUse">
<stop offset="0.118426" stop-color="#F2F7F8"/>
<stop offset="0.56" stop-color="#F2F7F8"/>
<stop offset="0.833462" stop-color="#4EF1FA"/>
</linearGradient>
<linearGradient id="paint9_linear_0_17" x1="311.922" y1="214.708" x2="311.922" y2="269.999" gradientUnits="userSpaceOnUse">
<stop offset="0.118426" stop-color="#5EEFF9"/>
<stop offset="0.56" stop-color="#0594EC"/>
<stop offset="0.833462" stop-color="#0176E5"/>
</linearGradient>
<linearGradient id="paint10_linear_0_17" x1="250.126" y1="319.395" x2="261.091" y2="355.888" gradientUnits="userSpaceOnUse">
<stop stop-color="#F8F4D7"/>
<stop offset="0.51" stop-color="#3DBCE1"/>
<stop offset="1" stop-color="#5511D2"/>
</linearGradient>
<linearGradient id="paint11_linear_0_17" x1="267.12" y1="282.893" x2="267.12" y2="347.616" gradientUnits="userSpaceOnUse">
<stop stop-color="#FB709C"/>
<stop offset="0.515" stop-color="#F91A9E"/>
<stop offset="0.91" stop-color="#DC11A7"/>
</linearGradient>
<linearGradient id="paint12_linear_0_17" x1="187.241" y1="321.274" x2="199.197" y2="355.44" gradientUnits="userSpaceOnUse">
<stop stop-color="#F8F4D7"/>
<stop offset="0.51" stop-color="#3DBCE1"/>
<stop offset="1" stop-color="#5511D2"/>
</linearGradient>
<linearGradient id="paint13_linear_0_17" x1="201.803" y1="287.264" x2="201.803" y2="350.12" gradientUnits="userSpaceOnUse">
<stop stop-color="#FB709C"/>
<stop offset="0.515" stop-color="#F91A9E"/>
<stop offset="0.91" stop-color="#DC11A7"/>
</linearGradient>
<linearGradient id="paint14_linear_0_17" x1="129.331" y1="333.846" x2="144.829" y2="372.372" gradientUnits="userSpaceOnUse">
<stop stop-color="#F8F4D7"/>
<stop offset="0.51" stop-color="#3DBCE1"/>
<stop offset="1" stop-color="#5511D2"/>
</linearGradient>
<linearGradient id="paint15_linear_0_17" x1="319.677" y1="317.143" x2="333.354" y2="352.728" gradientUnits="userSpaceOnUse">
<stop stop-color="#F8F4D7"/>
<stop offset="0.51" stop-color="#3DBCE1"/>
<stop offset="1" stop-color="#5511D2"/>
</linearGradient>
<linearGradient id="paint16_linear_0_17" x1="142.667" y1="289.668" x2="142.667" y2="367.032" gradientUnits="userSpaceOnUse">
<stop stop-color="#F8F4D7"/>
<stop offset="1" stop-color="#E4E9F4"/>
</linearGradient>
<linearGradient id="paint17_linear_0_17" x1="142.093" y1="293.599" x2="142.093" y2="360.739" gradientUnits="userSpaceOnUse">
<stop stop-color="#FB709C"/>
<stop offset="0.515" stop-color="#F91A9E"/>
<stop offset="0.91" stop-color="#DC11A7"/>
</linearGradient>
<linearGradient id="paint18_linear_0_17" x1="333.177" y1="279.991" x2="333.177" y2="342.592" gradientUnits="userSpaceOnUse">
<stop stop-color="#FB709C"/>
<stop offset="0.515" stop-color="#F91A9E"/>
<stop offset="0.91" stop-color="#DC11A7"/>
</linearGradient>
<linearGradient id="paint19_linear_0_17" x1="254.678" y1="94.8936" x2="184.121" y2="41.822" gradientUnits="userSpaceOnUse">
<stop stop-color="#F8F4D7"/>
<stop offset="0.51" stop-color="#3DBCE1"/>
<stop offset="1" stop-color="#5511D2"/>
</linearGradient>
<linearGradient id="paint20_linear_0_17" x1="241.259" y1="131.677" x2="180.534" y2="50.7578" gradientUnits="userSpaceOnUse">
<stop stop-color="#FB709C"/>
<stop offset="0.515" stop-color="#F91A9E"/>
<stop offset="0.91" stop-color="#DC11A7"/>
</linearGradient>
<linearGradient id="paint21_linear_0_17" x1="225.489" y1="73.3112" x2="225.489" y2="172.529" gradientUnits="userSpaceOnUse">
<stop offset="0.118426" stop-color="#5EEFF9"/>
<stop offset="0.56" stop-color="#0594EC"/>
<stop offset="0.833462" stop-color="#0176E5"/>
</linearGradient>
<linearGradient id="paint22_linear_0_17" x1="220.689" y1="121.829" x2="220.689" y2="175.541" gradientUnits="userSpaceOnUse">
<stop stop-color="#FB709C"/>
<stop offset="0.515" stop-color="#F91A9E"/>
<stop offset="0.91" stop-color="#DC11A7"/>
</linearGradient>
<clipPath id="clip0_0_17">
<rect width="451" height="451" fill="white"/>
</clipPath>
</defs>
</svg>
